<?xml version="1.0" encoding="utf-8"?>
<!-- Generator: Adobe Illustrator 23.0.1, SVG Export Plug-In . SVG Version: 6.00 Build 0)  -->
<svg version="1.1" id="Calque_1" xmlns="http://www.w3.org/2000/svg" xmlns:xlink="http://www.w3.org/1999/xlink" x="0px" y="0px"
	 viewBox="0 0 511.66 226.6" style="enable-background:new 0 0 511.66 226.6;" xml:space="preserve">
<style type="text/css">
	.st0{fill:url(#SVGID_1_);}
	.st1{fill:url(#SVGID_2_);}
	.st2{fill:url(#SVGID_3_);}
	.st3{fill:url(#SVGID_4_);}
	.st4{fill:url(#SVGID_5_);}
	.st5{fill:url(#SVGID_6_);}
	.st6{fill:url(#SVGID_7_);}
	.st7{fill:url(#SVGID_8_);}
	.st8{fill:url(#SVGID_9_);}
	.st9{fill:url(#SVGID_10_);}
	.st10{fill:url(#SVGID_11_);}
	.st11{fill:url(#SVGID_12_);}
	.st12{fill:url(#SVGID_13_);}
	.st13{fill:url(#SVGID_14_);}
	.st14{fill:url(#SVGID_15_);}
	.st15{fill:url(#SVGID_16_);}
	.st16{fill:url(#SVGID_17_);}
	.st17{fill:url(#SVGID_18_);}
	.st18{fill:url(#SVGID_19_);}
	.st19{fill:url(#SVGID_20_);}
	.st20{fill:url(#SVGID_21_);}
	.st21{fill:url(#SVGID_22_);}
</style>
<linearGradient id="SVGID_1_" gradientUnits="userSpaceOnUse" x1="52.439" y1="171.7665" x2="53.3399" y2="48.3516">
	<stop  offset="0" style="stop-color:#7C1622"/>
	<stop  offset="3.961203e-03" style="stop-color:#7D1723"/>
	<stop  offset="0.1707" style="stop-color:#9A4A48"/>
	<stop  offset="0.3346" style="stop-color:#B67C76"/>
	<stop  offset="0.4914" style="stop-color:#CEA8A2"/>
	<stop  offset="0.64" style="stop-color:#E3CDC9"/>
	<stop  offset="0.7782" style="stop-color:#F3E8E6"/>
	<stop  offset="0.9023" style="stop-color:#FCF9F9"/>
	<stop  offset="1" style="stop-color:#FFFFFF"/>
</linearGradient>
<rect x="6" y="13.77" class="st0" width="93.69" height="205.35"/>
<linearGradient id="SVGID_2_" gradientUnits="userSpaceOnUse" x1="199.2453" y1="193.0819" x2="200.4386" y2="29.6055">
	<stop  offset="0" style="stop-color:#7C1622"/>
	<stop  offset="3.961203e-03" style="stop-color:#7D1723"/>
	<stop  offset="0.1707" style="stop-color:#9A4A48"/>
	<stop  offset="0.3346" style="stop-color:#B67C76"/>
	<stop  offset="0.4914" style="stop-color:#CEA8A2"/>
	<stop  offset="0.64" style="stop-color:#E3CDC9"/>
	<stop  offset="0.7782" style="stop-color:#F3E8E6"/>
	<stop  offset="0.9023" style="stop-color:#FCF9F9"/>
	<stop  offset="1" style="stop-color:#FFFFFF"/>
</linearGradient>
<path class="st1" d="M223.17,67.99c-3.89-7.51-11.73-11.27-23.53-11.27c-10.31,0-17.71,3.36-22.2,10.07
	c-2.05,3.06-3.57,8.02-4.68,14.43c-1.33,7.66-2.06,17.5-2.06,29.95c0,10.36,0.43,18.53,1.18,25c0.46,3.92,1.01,7.37,1.75,9.87
	c1.96,6.62,4.95,11.38,8.97,14.33c4.02,2.95,9.81,4.42,17.37,4.42c7.33,0,13.13-1.6,17.41-4.8c4.27-3.18,7.28-8.17,9.01-14.95
	c0.58-2.27,1.03-5.38,1.42-8.87c0.77-6.9,1.19-15.94,1.19-27.57c0-11.17-0.71-20.14-1.98-27.38
	C226.07,75.78,224.84,71.22,223.17,67.99z M214.12,115.88c0,8.35-0.34,15.05-0.97,20.29c-0.69,5.71-1.74,9.67-3.18,11.67
	c-2.76,3.86-6.08,5.79-9.95,5.79c-6.31,0-10.28-3.43-11.94-10.28c-0.49-2.01-0.88-4.48-1.22-7.18c-0.83-6.52-1.26-14.95-1.26-25.5
	v-5.79c0-10.09,0.58-17.97,1.75-23.66c0.38-1.86,0.82-3.49,1.32-4.88c2.05-5.64,5.84-8.46,11.36-8.46c4.7,0,8.22,2.36,10.57,7.07
	c0.69,1.37,1.24,3.6,1.73,6.27c1.18,6.49,1.8,16.61,1.8,30.77V115.88z"/>
<linearGradient id="SVGID_3_" gradientUnits="userSpaceOnUse" x1="272.7247" y1="193.6182" x2="273.918" y2="30.1418">
	<stop  offset="0" style="stop-color:#7C1622"/>
	<stop  offset="3.961203e-03" style="stop-color:#7D1723"/>
	<stop  offset="0.1707" style="stop-color:#9A4A48"/>
	<stop  offset="0.3346" style="stop-color:#B67C76"/>
	<stop  offset="0.4914" style="stop-color:#CEA8A2"/>
	<stop  offset="0.64" style="stop-color:#E3CDC9"/>
	<stop  offset="0.7782" style="stop-color:#F3E8E6"/>
	<stop  offset="0.9023" style="stop-color:#FCF9F9"/>
	<stop  offset="1" style="stop-color:#FFFFFF"/>
</linearGradient>
<polygon class="st2" points="298.88,164.13 298.88,136.17 298.88,81.22 298.88,58.78 286.39,58.78 286.39,81.22 286.39,131.14 
	286.06,131.08 267.47,81.22 259.1,58.78 247.77,58.78 247.77,81.22 247.77,136.17 247.77,164.13 260.51,164.13 260.51,136.17 
	260.51,91.86 260.84,91.83 277.32,136.17 287.71,164.13 "/>
<linearGradient id="SVGID_4_" gradientUnits="userSpaceOnUse" x1="347.4254" y1="194.1635" x2="348.6187" y2="30.6871">
	<stop  offset="0" style="stop-color:#7C1622"/>
	<stop  offset="3.961203e-03" style="stop-color:#7D1723"/>
	<stop  offset="0.1707" style="stop-color:#9A4A48"/>
	<stop  offset="0.3346" style="stop-color:#B67C76"/>
	<stop  offset="0.4914" style="stop-color:#CEA8A2"/>
	<stop  offset="0.64" style="stop-color:#E3CDC9"/>
	<stop  offset="0.7782" style="stop-color:#F3E8E6"/>
	<stop  offset="0.9023" style="stop-color:#FCF9F9"/>
	<stop  offset="1" style="stop-color:#FFFFFF"/>
</linearGradient>
<path class="st3" d="M371.36,67.99c-3.89-7.51-11.73-11.27-23.53-11.27c-10.31,0-17.71,3.36-22.2,10.07
	c-2.05,3.06-3.57,8.02-4.68,14.43c-1.33,7.66-2.06,17.5-2.06,29.95c0,10.36,0.43,18.53,1.18,25c0.46,3.92,1.01,7.37,1.75,9.87
	c1.96,6.62,4.95,11.38,8.97,14.33c4.02,2.95,9.81,4.42,17.37,4.42c7.33,0,13.13-1.6,17.41-4.8c4.27-3.18,7.28-8.17,9.01-14.95
	c0.58-2.27,1.03-5.38,1.42-8.87c0.77-6.9,1.19-15.94,1.19-27.57c0-11.17-0.71-20.14-1.98-27.38
	C374.26,75.78,373.03,71.22,371.36,67.99z M362.3,115.88c0,8.35-0.34,15.05-0.97,20.29c-0.69,5.71-1.74,9.67-3.18,11.67
	c-2.76,3.86-6.08,5.79-9.95,5.79c-6.31,0-10.28-3.43-11.94-10.28c-0.49-2.01-0.88-4.48-1.22-7.18c-0.83-6.52-1.26-14.95-1.26-25.5
	v-5.79c0-10.09,0.58-17.97,1.75-23.66c0.38-1.86,0.82-3.49,1.32-4.88c2.05-5.64,5.84-8.46,11.36-8.46c4.7,0,8.22,2.36,10.57,7.07
	c0.69,1.37,1.24,3.6,1.73,6.27c1.18,6.49,1.8,16.61,1.8,30.77V115.88z"/>
<linearGradient id="SVGID_5_" gradientUnits="userSpaceOnUse" x1="477.5886" y1="195.1136" x2="478.7818" y2="31.6372">
	<stop  offset="0" style="stop-color:#7C1622"/>
	<stop  offset="3.961203e-03" style="stop-color:#7D1723"/>
	<stop  offset="0.1707" style="stop-color:#9A4A48"/>
	<stop  offset="0.3346" style="stop-color:#B67C76"/>
	<stop  offset="0.4914" style="stop-color:#CEA8A2"/>
	<stop  offset="0.64" style="stop-color:#E3CDC9"/>
	<stop  offset="0.7782" style="stop-color:#F3E8E6"/>
	<stop  offset="0.9023" style="stop-color:#FCF9F9"/>
	<stop  offset="1" style="stop-color:#FFFFFF"/>
</linearGradient>
<polygon class="st4" points="497.26,152.48 473.2,152.48 473.2,136.17 473.2,116.17 494.86,116.17 494.86,104.18 473.2,104.18 
	473.2,81.22 473.2,70.77 496.6,70.77 496.6,58.78 459.14,58.78 459.14,81.22 459.14,136.17 459.14,164.13 497.26,164.13 "/>
<linearGradient id="SVGID_6_" gradientUnits="userSpaceOnUse" x1="132.9761" y1="192.5982" x2="134.1693" y2="29.1218">
	<stop  offset="0" style="stop-color:#7C1622"/>
	<stop  offset="3.961203e-03" style="stop-color:#7D1723"/>
	<stop  offset="0.1707" style="stop-color:#9A4A48"/>
	<stop  offset="0.3346" style="stop-color:#B67C76"/>
	<stop  offset="0.4914" style="stop-color:#CEA8A2"/>
	<stop  offset="0.64" style="stop-color:#E3CDC9"/>
	<stop  offset="0.7782" style="stop-color:#F3E8E6"/>
	<stop  offset="0.9023" style="stop-color:#FCF9F9"/>
	<stop  offset="1" style="stop-color:#FFFFFF"/>
</linearGradient>
<path class="st5" d="M127.62,153.88c-2.54,0-5.13-0.62-7.77-1.86c-2.65-1.24-4.38-2.16-5.21-2.77c-0.17-0.11-0.33-0.19-0.5-0.25
	v12.65c6.06,2.48,11.19,3.72,15.38,3.72c7.61,0,13.77-2.44,18.48-7.32c4.71-4.89,7.07-11.25,7.07-19.09c0-0.99-0.27-1.84-0.34-2.8
	c-0.38-5.11-1.56-9.82-4-13.91c-2.89-4.87-7.08-10.58-12.55-17.2c-5.46-6.6-8.98-11.41-10.54-14.42c-1.56-2.99-2.34-5.82-2.34-8.46
	c0-0.35,0.16-0.63,0.18-0.96c0.22-3.31,1.37-6.23,3.75-8.63c2.62-2.65,5.77-3.97,9.47-3.97s7.86,1.24,12.49,3.72V60.85
	c-5.07-2.48-10.09-3.72-15.05-3.72c-7.11,0-12.9,2.4-17.37,7.19c-4.1,4.41-6.22,10.08-6.56,16.9c-0.03,0.62-0.14,1.18-0.14,1.82
	c0,5.18,0.88,9.65,2.65,13.4c1.76,3.75,4.49,7.9,8.18,12.42l9.5,11.69c3.58,4.37,6.04,7.81,7.41,10.35
	c0.89,1.65,1.38,3.44,1.68,5.28c0.16,0.98,0.35,1.95,0.35,2.99c0,4.3-1.34,7.83-4.01,10.58
	C135.16,152.5,131.75,153.88,127.62,153.88z"/>
<linearGradient id="SVGID_7_" gradientUnits="userSpaceOnUse" x1="419.7057" y1="194.6911" x2="420.899" y2="31.2147">
	<stop  offset="0" style="stop-color:#7C1622"/>
	<stop  offset="3.961203e-03" style="stop-color:#7D1723"/>
	<stop  offset="0.1707" style="stop-color:#9A4A48"/>
	<stop  offset="0.3346" style="stop-color:#B67C76"/>
	<stop  offset="0.4914" style="stop-color:#CEA8A2"/>
	<stop  offset="0.64" style="stop-color:#E3CDC9"/>
	<stop  offset="0.7782" style="stop-color:#F3E8E6"/>
	<stop  offset="0.9023" style="stop-color:#FCF9F9"/>
	<stop  offset="1" style="stop-color:#FFFFFF"/>
</linearGradient>
<path class="st6" d="M443.67,164.13l-10.01-27.96l-8.1-22.65c5.35-2.09,9.21-5.21,11.58-9.34s3.56-10.28,3.56-18.44
	c0-1.61-0.14-3.06-0.27-4.52c-1.31-14.9-9.19-22.44-23.8-22.44h-19.68v22.44v54.95v27.96h14.22v-27.96v-21.49h1.24l7.17,21.49
	l9.33,27.96H443.67z M411.18,105.01V81.22V69.78H412c5.4,0,9.22,1.35,11.45,4.05c1.39,1.68,2.19,4.31,2.71,7.39
	c0.32,1.88,0.63,3.77,0.63,6.17c0,6.62-1.23,11.18-3.68,13.69C420.67,103.59,416.69,104.9,411.18,105.01z"/>
<linearGradient id="SVGID_8_" gradientUnits="userSpaceOnUse" x1="130.3769" y1="192.5792" x2="131.5702" y2="29.1028">
	<stop  offset="0" style="stop-color:#7C1622"/>
	<stop  offset="3.961203e-03" style="stop-color:#7D1723"/>
	<stop  offset="0.1707" style="stop-color:#9A4A48"/>
	<stop  offset="0.3346" style="stop-color:#B67C76"/>
	<stop  offset="0.4914" style="stop-color:#CEA8A2"/>
	<stop  offset="0.64" style="stop-color:#E3CDC9"/>
	<stop  offset="0.7782" style="stop-color:#F3E8E6"/>
	<stop  offset="0.9023" style="stop-color:#FCF9F9"/>
	<stop  offset="1" style="stop-color:#FFFFFF"/>
</linearGradient>
<path class="st7" d="M129.09,26.5c2.62-2.65,5.77-3.97,9.47-3.97c3.69,0,7.86,1.24,12.49,3.72V14.76
	c-5.07-2.48-10.09-3.72-15.05-3.72c-7.11,0-12.9,2.4-17.37,7.19c-4.1,4.41-6.22,10.08-6.56,16.9h13.27
	C125.56,31.82,126.71,28.9,129.09,26.5z"/>
<linearGradient id="SVGID_9_" gradientUnits="userSpaceOnUse" x1="198.6012" y1="193.0772" x2="199.7945" y2="29.6008">
	<stop  offset="0" style="stop-color:#7C1622"/>
	<stop  offset="3.961203e-03" style="stop-color:#7D1723"/>
	<stop  offset="0.1707" style="stop-color:#9A4A48"/>
	<stop  offset="0.3346" style="stop-color:#B67C76"/>
	<stop  offset="0.4914" style="stop-color:#CEA8A2"/>
	<stop  offset="0.64" style="stop-color:#E3CDC9"/>
	<stop  offset="0.7782" style="stop-color:#F3E8E6"/>
	<stop  offset="0.9023" style="stop-color:#FCF9F9"/>
	<stop  offset="1" style="stop-color:#FFFFFF"/>
</linearGradient>
<path class="st8" d="M188.51,30.25c2.05-5.64,5.84-8.46,11.36-8.46c4.7,0,8.22,2.36,10.57,7.07c0.69,1.37,1.24,3.6,1.73,6.27h14.71
	c-0.95-5.44-2.19-10-3.85-13.23c-3.89-7.51-11.73-11.27-23.53-11.27c-10.31,0-17.71,3.36-22.2,10.07
	c-2.05,3.06-3.57,8.02-4.68,14.43h14.57C187.57,33.27,188.01,31.64,188.51,30.25z"/>
<linearGradient id="SVGID_10_" gradientUnits="userSpaceOnUse" x1="291.2551" y1="193.7535" x2="292.4484" y2="30.2771">
	<stop  offset="0" style="stop-color:#7C1622"/>
	<stop  offset="3.961203e-03" style="stop-color:#7D1723"/>
	<stop  offset="0.1707" style="stop-color:#9A4A48"/>
	<stop  offset="0.3346" style="stop-color:#B67C76"/>
	<stop  offset="0.4914" style="stop-color:#CEA8A2"/>
	<stop  offset="0.64" style="stop-color:#E3CDC9"/>
	<stop  offset="0.7782" style="stop-color:#F3E8E6"/>
	<stop  offset="0.9023" style="stop-color:#FCF9F9"/>
	<stop  offset="1" style="stop-color:#FFFFFF"/>
</linearGradient>
<rect x="286.25" y="12.69" class="st9" width="12.49" height="22.44"/>
<linearGradient id="SVGID_11_" gradientUnits="userSpaceOnUse" x1="256.2433" y1="193.4979" x2="257.4366" y2="30.0215">
	<stop  offset="0" style="stop-color:#7C1622"/>
	<stop  offset="3.961203e-03" style="stop-color:#7D1723"/>
	<stop  offset="0.1707" style="stop-color:#9A4A48"/>
	<stop  offset="0.3346" style="stop-color:#B67C76"/>
	<stop  offset="0.4914" style="stop-color:#CEA8A2"/>
	<stop  offset="0.64" style="stop-color:#E3CDC9"/>
	<stop  offset="0.7782" style="stop-color:#F3E8E6"/>
	<stop  offset="0.9023" style="stop-color:#FCF9F9"/>
	<stop  offset="1" style="stop-color:#FFFFFF"/>
</linearGradient>
<polygon class="st10" points="258.96,12.69 247.63,12.69 247.63,35.13 267.33,35.13 "/>
<linearGradient id="SVGID_12_" gradientUnits="userSpaceOnUse" x1="346.7813" y1="194.1588" x2="347.9746" y2="30.6824">
	<stop  offset="0" style="stop-color:#7C1622"/>
	<stop  offset="3.961203e-03" style="stop-color:#7D1723"/>
	<stop  offset="0.1707" style="stop-color:#9A4A48"/>
	<stop  offset="0.3346" style="stop-color:#B67C76"/>
	<stop  offset="0.4914" style="stop-color:#CEA8A2"/>
	<stop  offset="0.64" style="stop-color:#E3CDC9"/>
	<stop  offset="0.7782" style="stop-color:#F3E8E6"/>
	<stop  offset="0.9023" style="stop-color:#FCF9F9"/>
	<stop  offset="1" style="stop-color:#FFFFFF"/>
</linearGradient>
<path class="st11" d="M336.7,30.25c2.05-5.64,5.84-8.46,11.36-8.46c4.7,0,8.22,2.36,10.57,7.07c0.69,1.37,1.24,3.6,1.73,6.27h14.71
	c-0.95-5.44-2.19-10-3.85-13.23c-3.89-7.51-11.73-11.27-23.53-11.27c-10.31,0-17.71,3.36-22.2,10.07
	c-2.05,3.06-3.57,8.02-4.68,14.43h14.57C335.76,33.27,336.2,31.64,336.7,30.25z"/>
<linearGradient id="SVGID_13_" gradientUnits="userSpaceOnUse" x1="417.3053" y1="194.6736" x2="418.4985" y2="31.1972">
	<stop  offset="0" style="stop-color:#7C1622"/>
	<stop  offset="3.961203e-03" style="stop-color:#7D1723"/>
	<stop  offset="0.1707" style="stop-color:#9A4A48"/>
	<stop  offset="0.3346" style="stop-color:#B67C76"/>
	<stop  offset="0.4914" style="stop-color:#CEA8A2"/>
	<stop  offset="0.64" style="stop-color:#E3CDC9"/>
	<stop  offset="0.7782" style="stop-color:#F3E8E6"/>
	<stop  offset="0.9023" style="stop-color:#FCF9F9"/>
	<stop  offset="1" style="stop-color:#FFFFFF"/>
</linearGradient>
<path class="st12" d="M411.04,23.69h0.83c5.4,0,9.22,1.35,11.45,4.05c1.39,1.68,2.19,4.31,2.71,7.39h14.26
	c-1.31-14.9-9.19-22.44-23.8-22.44h-19.68v22.44h14.22V23.69z"/>
<linearGradient id="SVGID_14_" gradientUnits="userSpaceOnUse" x1="476.442" y1="195.1052" x2="477.6353" y2="31.6288">
	<stop  offset="0" style="stop-color:#7C1622"/>
	<stop  offset="3.961203e-03" style="stop-color:#7D1723"/>
	<stop  offset="0.1707" style="stop-color:#9A4A48"/>
	<stop  offset="0.3346" style="stop-color:#B67C76"/>
	<stop  offset="0.4914" style="stop-color:#CEA8A2"/>
	<stop  offset="0.64" style="stop-color:#E3CDC9"/>
	<stop  offset="0.7782" style="stop-color:#F3E8E6"/>
	<stop  offset="0.9023" style="stop-color:#FCF9F9"/>
	<stop  offset="1" style="stop-color:#FFFFFF"/>
</linearGradient>
<polygon class="st13" points="473.06,24.68 496.46,24.68 496.46,12.69 459,12.69 459,35.13 473.06,35.13 "/>
<linearGradient id="SVGID_15_" gradientUnits="userSpaceOnUse" x1="134.8799" y1="192.6121" x2="136.0732" y2="29.1357">
	<stop  offset="0" style="stop-color:#7C1622"/>
	<stop  offset="3.961203e-03" style="stop-color:#7D1723"/>
	<stop  offset="0.1707" style="stop-color:#9A4A48"/>
	<stop  offset="0.3346" style="stop-color:#B67C76"/>
	<stop  offset="0.4914" style="stop-color:#CEA8A2"/>
	<stop  offset="0.64" style="stop-color:#E3CDC9"/>
	<stop  offset="0.7782" style="stop-color:#F3E8E6"/>
	<stop  offset="0.9023" style="stop-color:#FCF9F9"/>
	<stop  offset="1" style="stop-color:#FFFFFF"/>
</linearGradient>
<path class="st14" d="M141.75,186.77c0.16,0.98,0.35,1.95,0.35,2.99c0,4.3-1.34,7.83-4.01,10.58c-2.67,2.76-6.08,4.13-10.21,4.13
	c-2.54,0-5.13-0.62-7.77-1.86c-2.65-1.24-4.38-2.16-5.21-2.77c-0.17-0.11-0.33-0.19-0.5-0.25v12.65c6.06,2.48,11.19,3.72,15.38,3.72
	c7.61,0,13.77-2.44,18.48-7.32c4.71-4.89,7.07-11.25,7.07-19.09c0-0.99-0.27-1.84-0.34-2.8H141.75z"/>
<linearGradient id="SVGID_16_" gradientUnits="userSpaceOnUse" x1="200.0638" y1="193.0878" x2="201.257" y2="29.6115">
	<stop  offset="0" style="stop-color:#7C1622"/>
	<stop  offset="3.961203e-03" style="stop-color:#7D1723"/>
	<stop  offset="0.1707" style="stop-color:#9A4A48"/>
	<stop  offset="0.3346" style="stop-color:#B67C76"/>
	<stop  offset="0.4914" style="stop-color:#CEA8A2"/>
	<stop  offset="0.64" style="stop-color:#E3CDC9"/>
	<stop  offset="0.7782" style="stop-color:#F3E8E6"/>
	<stop  offset="0.9023" style="stop-color:#FCF9F9"/>
	<stop  offset="1" style="stop-color:#FFFFFF"/>
</linearGradient>
<path class="st15" d="M210.23,198.44c-2.76,3.86-6.08,5.79-9.95,5.79c-6.31,0-10.28-3.43-11.94-10.28
	c-0.49-2.01-0.88-4.48-1.22-7.18h-14.97c0.46,3.92,1.01,7.37,1.75,9.87c1.96,6.62,4.95,11.38,8.97,14.33
	c4.02,2.95,9.81,4.42,17.37,4.42c7.33,0,13.13-1.6,17.41-4.8c4.27-3.18,7.28-8.17,9.01-14.95c0.58-2.27,1.03-5.38,1.42-8.87H213.4
	C212.71,192.48,211.67,196.44,210.23,198.44z"/>
<linearGradient id="SVGID_17_" gradientUnits="userSpaceOnUse" x1="254.4525" y1="193.4848" x2="255.6458" y2="30.0085">
	<stop  offset="0" style="stop-color:#7C1622"/>
	<stop  offset="3.961203e-03" style="stop-color:#7D1723"/>
	<stop  offset="0.1707" style="stop-color:#9A4A48"/>
	<stop  offset="0.3346" style="stop-color:#B67C76"/>
	<stop  offset="0.4914" style="stop-color:#CEA8A2"/>
	<stop  offset="0.64" style="stop-color:#E3CDC9"/>
	<stop  offset="0.7782" style="stop-color:#F3E8E6"/>
	<stop  offset="0.9023" style="stop-color:#FCF9F9"/>
	<stop  offset="1" style="stop-color:#FFFFFF"/>
</linearGradient>
<rect x="248.03" y="186.77" class="st16" width="12.73" height="27.96"/>
<linearGradient id="SVGID_18_" gradientUnits="userSpaceOnUse" x1="288.4095" y1="193.7327" x2="289.6028" y2="30.2563">
	<stop  offset="0" style="stop-color:#7C1622"/>
	<stop  offset="3.961203e-03" style="stop-color:#7D1723"/>
	<stop  offset="0.1707" style="stop-color:#9A4A48"/>
	<stop  offset="0.3346" style="stop-color:#B67C76"/>
	<stop  offset="0.4914" style="stop-color:#CEA8A2"/>
	<stop  offset="0.64" style="stop-color:#E3CDC9"/>
	<stop  offset="0.7782" style="stop-color:#F3E8E6"/>
	<stop  offset="0.9023" style="stop-color:#FCF9F9"/>
	<stop  offset="1" style="stop-color:#FFFFFF"/>
</linearGradient>
<polygon class="st17" points="287.97,214.73 299.14,214.73 299.14,186.77 277.58,186.77 "/>
<linearGradient id="SVGID_19_" gradientUnits="userSpaceOnUse" x1="348.2438" y1="194.1695" x2="349.4371" y2="30.6931">
	<stop  offset="0" style="stop-color:#7C1622"/>
	<stop  offset="3.961203e-03" style="stop-color:#7D1723"/>
	<stop  offset="0.1707" style="stop-color:#9A4A48"/>
	<stop  offset="0.3346" style="stop-color:#B67C76"/>
	<stop  offset="0.4914" style="stop-color:#CEA8A2"/>
	<stop  offset="0.64" style="stop-color:#E3CDC9"/>
	<stop  offset="0.7782" style="stop-color:#F3E8E6"/>
	<stop  offset="0.9023" style="stop-color:#FCF9F9"/>
	<stop  offset="1" style="stop-color:#FFFFFF"/>
</linearGradient>
<path class="st18" d="M358.42,198.44c-2.76,3.86-6.08,5.79-9.95,5.79c-6.31,0-10.28-3.43-11.94-10.28
	c-0.49-2.01-0.88-4.48-1.22-7.18h-14.97c0.46,3.92,1.01,7.37,1.75,9.87c1.96,6.62,4.95,11.38,8.97,14.33
	c4.02,2.95,9.81,4.42,17.37,4.42c7.33,0,13.13-1.6,17.41-4.8c4.27-3.18,7.28-8.17,9.01-14.95c0.58-2.27,1.03-5.38,1.42-8.87h-14.67
	C360.9,192.48,359.86,196.44,358.42,198.44z"/>
<linearGradient id="SVGID_20_" gradientUnits="userSpaceOnUse" x1="404.3691" y1="194.5791" x2="405.5624" y2="31.1028">
	<stop  offset="0" style="stop-color:#7C1622"/>
	<stop  offset="3.961203e-03" style="stop-color:#7D1723"/>
	<stop  offset="0.1707" style="stop-color:#9A4A48"/>
	<stop  offset="0.3346" style="stop-color:#B67C76"/>
	<stop  offset="0.4914" style="stop-color:#CEA8A2"/>
	<stop  offset="0.64" style="stop-color:#E3CDC9"/>
	<stop  offset="0.7782" style="stop-color:#F3E8E6"/>
	<stop  offset="0.9023" style="stop-color:#FCF9F9"/>
	<stop  offset="1" style="stop-color:#FFFFFF"/>
</linearGradient>
<rect x="397.21" y="186.77" class="st19" width="14.22" height="27.96"/>
<linearGradient id="SVGID_21_" gradientUnits="userSpaceOnUse" x1="431.9349" y1="194.7803" x2="433.1282" y2="31.304">
	<stop  offset="0" style="stop-color:#7C1622"/>
	<stop  offset="3.961203e-03" style="stop-color:#7D1723"/>
	<stop  offset="0.1707" style="stop-color:#9A4A48"/>
	<stop  offset="0.3346" style="stop-color:#B67C76"/>
	<stop  offset="0.4914" style="stop-color:#CEA8A2"/>
	<stop  offset="0.64" style="stop-color:#E3CDC9"/>
	<stop  offset="0.7782" style="stop-color:#F3E8E6"/>
	<stop  offset="0.9023" style="stop-color:#FCF9F9"/>
	<stop  offset="1" style="stop-color:#FFFFFF"/>
</linearGradient>
<polygon class="st20" points="419.85,186.77 429.18,214.73 443.93,214.73 433.93,186.77 "/>
<linearGradient id="SVGID_22_" gradientUnits="userSpaceOnUse" x1="478.5005" y1="195.1202" x2="479.6938" y2="31.6439">
	<stop  offset="0" style="stop-color:#7C1622"/>
	<stop  offset="3.961203e-03" style="stop-color:#7D1723"/>
	<stop  offset="0.1707" style="stop-color:#9A4A48"/>
	<stop  offset="0.3346" style="stop-color:#B67C76"/>
	<stop  offset="0.4914" style="stop-color:#CEA8A2"/>
	<stop  offset="0.64" style="stop-color:#E3CDC9"/>
	<stop  offset="0.7782" style="stop-color:#F3E8E6"/>
	<stop  offset="0.9023" style="stop-color:#FCF9F9"/>
	<stop  offset="1" style="stop-color:#FFFFFF"/>
</linearGradient>
<polygon class="st21" points="473.46,186.77 459.4,186.77 459.4,214.73 497.52,214.73 497.52,203.07 473.46,203.07 "/>
</svg>
