<?xml version="1.0" encoding="utf-8"?>
<!-- Generator: Adobe Illustrator 23.0.1, SVG Export Plug-In . SVG Version: 6.00 Build 0)  -->
<svg version="1.1" id="Calque_1" xmlns="http://www.w3.org/2000/svg" xmlns:xlink="http://www.w3.org/1999/xlink" x="0px" y="0px"
	 viewBox="0 0 512 204.11" style="enable-background:new 0 0 512 204.11;" xml:space="preserve">
<style type="text/css">
	.st0{fill:url(#SVGID_1_);}
	.st1{fill:url(#SVGID_2_);}
	.st2{fill:url(#SVGID_3_);}
	.st3{fill:url(#SVGID_4_);}
	.st4{fill:url(#SVGID_5_);}
	.st5{fill:url(#SVGID_6_);}
	.st6{fill:url(#SVGID_7_);}
	.st7{fill:url(#SVGID_8_);}
	.st8{fill:url(#SVGID_9_);}
	.st9{fill:url(#SVGID_10_);}
	.st10{fill:url(#SVGID_11_);}
	.st11{fill:url(#SVGID_12_);}
	.st12{fill:url(#SVGID_13_);}
	.st13{fill:url(#SVGID_14_);}
	.st14{fill:url(#SVGID_15_);}
	.st15{fill:url(#SVGID_16_);}
	.st16{fill:url(#SVGID_17_);}
	.st17{fill:url(#SVGID_18_);}
	.st18{fill:url(#SVGID_19_);}
	.st19{fill:url(#SVGID_20_);}
	.st20{fill:url(#SVGID_21_);}
	.st21{fill:url(#SVGID_22_);}
	.st22{fill:url(#SVGID_23_);}
	.st23{fill:url(#SVGID_24_);}
	.st24{fill:url(#SVGID_25_);}
	.st25{fill:url(#SVGID_26_);}
	.st26{fill:url(#SVGID_27_);}
	.st27{fill:url(#SVGID_28_);}
	.st28{fill:url(#SVGID_29_);}
	.st29{fill:url(#SVGID_30_);}
	.st30{fill:url(#SVGID_31_);}
	.st31{fill:url(#SVGID_32_);}
	.st32{fill:url(#SVGID_33_);}
	.st33{fill:url(#SVGID_34_);}
	.st34{fill:url(#SVGID_35_);}
	.st35{fill:url(#SVGID_36_);}
	.st36{fill:url(#SVGID_37_);}
	.st37{fill:url(#SVGID_38_);}
	.st38{fill:url(#SVGID_39_);}
	.st39{fill:url(#SVGID_40_);}
	.st40{fill:url(#SVGID_41_);}
	.st41{fill:url(#SVGID_42_);}
	.st42{fill:url(#SVGID_43_);}
</style>
<linearGradient id="SVGID_1_" gradientUnits="userSpaceOnUse" x1="214.3302" y1="154.1738" x2="214.3302" y2="46.0925">
	<stop  offset="1.821087e-07" style="stop-color:#7C1622"/>
	<stop  offset="1" style="stop-color:#282A5E"/>
</linearGradient>
<path class="st0" d="M237.65,57.37c-3.89-7.51-11.73-11.27-23.53-11.27c-10.31,0-17.71,3.36-22.2,10.07
	c-2.05,3.06-3.57,8.02-4.68,14.43c-1.33,7.66-2.06,17.5-2.06,29.95c0,10.36,0.43,18.53,1.18,25c0.46,3.92,1.01,7.37,1.75,9.87
	c1.96,6.62,4.95,11.38,8.97,14.33c4.02,2.95,9.81,4.42,17.37,4.42c7.33,0,13.13-1.6,17.41-4.8c4.27-3.18,7.28-8.17,9.01-14.95
	c0.58-2.27,1.03-5.38,1.42-8.87c0.77-6.9,1.19-15.94,1.19-27.57c0-11.17-0.71-20.14-1.98-27.38
	C240.55,65.16,239.32,60.6,237.65,57.37z M228.59,105.26c0,8.35-0.34,15.05-0.97,20.29c-0.69,5.71-1.74,9.67-3.18,11.67
	c-2.76,3.86-6.08,5.79-9.95,5.79c-6.31,0-10.28-3.43-11.94-10.28c-0.49-2.01-0.88-4.48-1.22-7.18c-0.83-6.52-1.26-14.95-1.26-25.5
	v-5.79c0-10.09,0.58-17.97,1.75-23.66c0.38-1.86,0.82-3.49,1.32-4.88c2.05-5.64,5.84-8.46,11.36-8.46c4.7,0,8.22,2.36,10.57,7.07
	c0.69,1.37,1.24,3.6,1.73,6.27c1.18,6.49,1.8,16.61,1.8,30.77V105.26z"/>
<linearGradient id="SVGID_2_" gradientUnits="userSpaceOnUse" x1="214.3302" y1="228.2611" x2="214.3302" y2="-20.8387">
	<stop  offset="1.821087e-07" style="stop-color:#7C1622"/>
	<stop  offset="1" style="stop-color:#282A5E"/>
</linearGradient>
<path class="st1" d="M237.65,57.37c-3.89-7.51-11.73-11.27-23.53-11.27c-10.31,0-17.71,3.36-22.2,10.07
	c-2.05,3.06-3.57,8.02-4.68,14.43c-1.33,7.66-2.06,17.5-2.06,29.95c0,10.36,0.43,18.53,1.18,25c0.46,3.92,1.01,7.37,1.75,9.87
	c1.96,6.62,4.95,11.38,8.97,14.33c4.02,2.95,9.81,4.42,17.37,4.42c7.33,0,13.13-1.6,17.41-4.8c4.27-3.18,7.28-8.17,9.01-14.95
	c0.58-2.27,1.03-5.38,1.42-8.87c0.77-6.9,1.19-15.94,1.19-27.57c0-11.17-0.71-20.14-1.98-27.38
	C240.55,65.16,239.32,60.6,237.65,57.37z M228.59,105.26c0,8.35-0.34,15.05-0.97,20.29c-0.69,5.71-1.74,9.67-3.18,11.67
	c-2.76,3.86-6.08,5.79-9.95,5.79c-6.31,0-10.28-3.43-11.94-10.28c-0.49-2.01-0.88-4.48-1.22-7.18c-0.83-6.52-1.26-14.95-1.26-25.5
	v-5.79c0-10.09,0.58-17.97,1.75-23.66c0.38-1.86,0.82-3.49,1.32-4.88c2.05-5.64,5.84-8.46,11.36-8.46c4.7,0,8.22,2.36,10.57,7.07
	c0.69,1.37,1.24,3.6,1.73,6.27c1.18,6.49,1.8,16.61,1.8,30.77V105.26z"/>
<linearGradient id="SVGID_3_" gradientUnits="userSpaceOnUse" x1="287.804" y1="153.5123" x2="287.804" y2="48.1599">
	<stop  offset="1.821087e-07" style="stop-color:#7C1622"/>
	<stop  offset="1" style="stop-color:#282A5E"/>
</linearGradient>
<polygon class="st2" points="313.36,153.51 313.36,125.55 313.36,70.6 313.36,48.16 300.87,48.16 300.87,70.6 300.87,120.52 
	300.54,120.46 281.95,70.6 273.58,48.16 262.25,48.16 262.25,70.6 262.25,125.55 262.25,153.51 274.99,153.51 274.99,125.55 
	274.99,81.24 275.32,81.21 291.8,125.55 302.19,153.51 "/>
<linearGradient id="SVGID_4_" gradientUnits="userSpaceOnUse" x1="287.804" y1="228.2611" x2="287.804" y2="-20.8387">
	<stop  offset="1.821087e-07" style="stop-color:#7C1622"/>
	<stop  offset="1" style="stop-color:#282A5E"/>
</linearGradient>
<polygon class="st3" points="313.36,153.51 313.36,125.55 313.36,70.6 313.36,48.16 300.87,48.16 300.87,70.6 300.87,120.52 
	300.54,120.46 281.95,70.6 273.58,48.16 262.25,48.16 262.25,70.6 262.25,125.55 262.25,153.51 274.99,153.51 274.99,125.55 
	274.99,81.24 275.32,81.21 291.8,125.55 302.19,153.51 "/>
<linearGradient id="SVGID_5_" gradientUnits="userSpaceOnUse" x1="362.5182" y1="154.1738" x2="362.5182" y2="46.0925">
	<stop  offset="1.821087e-07" style="stop-color:#7C1622"/>
	<stop  offset="1" style="stop-color:#282A5E"/>
</linearGradient>
<path class="st4" d="M385.84,57.37c-3.89-7.51-11.73-11.27-23.53-11.27c-10.31,0-17.71,3.36-22.2,10.07
	c-2.05,3.06-3.57,8.02-4.68,14.43c-1.33,7.66-2.06,17.5-2.06,29.95c0,10.36,0.43,18.53,1.18,25c0.46,3.92,1.01,7.37,1.75,9.87
	c1.96,6.62,4.95,11.38,8.97,14.33c4.02,2.95,9.81,4.42,17.37,4.42c7.33,0,13.13-1.6,17.41-4.8c4.27-3.18,7.28-8.17,9.01-14.95
	c0.58-2.27,1.03-5.38,1.42-8.87c0.77-6.9,1.19-15.94,1.19-27.57c0-11.17-0.71-20.14-1.98-27.38
	C388.74,65.16,387.51,60.6,385.84,57.37z M376.78,105.26c0,8.35-0.34,15.05-0.97,20.29c-0.69,5.71-1.74,9.67-3.18,11.67
	c-2.76,3.86-6.08,5.79-9.95,5.79c-6.31,0-10.28-3.43-11.94-10.28c-0.49-2.01-0.88-4.48-1.22-7.18c-0.83-6.52-1.26-14.95-1.26-25.5
	v-5.79c0-10.09,0.58-17.97,1.75-23.66c0.38-1.86,0.82-3.49,1.32-4.88c2.05-5.64,5.84-8.46,11.36-8.46c4.7,0,8.22,2.36,10.57,7.07
	c0.69,1.37,1.24,3.6,1.73,6.27c1.18,6.49,1.8,16.61,1.8,30.77V105.26z"/>
<linearGradient id="SVGID_6_" gradientUnits="userSpaceOnUse" x1="362.5182" y1="228.2611" x2="362.5182" y2="-20.8387">
	<stop  offset="1.821087e-07" style="stop-color:#7C1622"/>
	<stop  offset="1" style="stop-color:#282A5E"/>
</linearGradient>
<path class="st5" d="M385.84,57.37c-3.89-7.51-11.73-11.27-23.53-11.27c-10.31,0-17.71,3.36-22.2,10.07
	c-2.05,3.06-3.57,8.02-4.68,14.43c-1.33,7.66-2.06,17.5-2.06,29.95c0,10.36,0.43,18.53,1.18,25c0.46,3.92,1.01,7.37,1.75,9.87
	c1.96,6.62,4.95,11.38,8.97,14.33c4.02,2.95,9.81,4.42,17.37,4.42c7.33,0,13.13-1.6,17.41-4.8c4.27-3.18,7.28-8.17,9.01-14.95
	c0.58-2.27,1.03-5.38,1.42-8.87c0.77-6.9,1.19-15.94,1.19-27.57c0-11.17-0.71-20.14-1.98-27.38
	C388.74,65.16,387.51,60.6,385.84,57.37z M376.78,105.26c0,8.35-0.34,15.05-0.97,20.29c-0.69,5.71-1.74,9.67-3.18,11.67
	c-2.76,3.86-6.08,5.79-9.95,5.79c-6.31,0-10.28-3.43-11.94-10.28c-0.49-2.01-0.88-4.48-1.22-7.18c-0.83-6.52-1.26-14.95-1.26-25.5
	v-5.79c0-10.09,0.58-17.97,1.75-23.66c0.38-1.86,0.82-3.49,1.32-4.88c2.05-5.64,5.84-8.46,11.36-8.46c4.7,0,8.22,2.36,10.57,7.07
	c0.69,1.37,1.24,3.6,1.73,6.27c1.18,6.49,1.8,16.61,1.8,30.77V105.26z"/>
<linearGradient id="SVGID_7_" gradientUnits="userSpaceOnUse" x1="492.6789" y1="153.5123" x2="492.6789" y2="48.1599">
	<stop  offset="1.821087e-07" style="stop-color:#7C1622"/>
	<stop  offset="1" style="stop-color:#282A5E"/>
</linearGradient>
<polygon class="st6" points="511.74,141.85 487.68,141.85 487.68,125.55 487.68,105.55 509.34,105.55 509.34,93.56 487.68,93.56 
	487.68,70.6 487.68,60.15 511.08,60.15 511.08,48.16 473.62,48.16 473.62,70.6 473.62,125.55 473.62,153.51 511.74,153.51 "/>
<linearGradient id="SVGID_8_" gradientUnits="userSpaceOnUse" x1="492.6789" y1="228.2611" x2="492.6789" y2="-20.8387">
	<stop  offset="1.821087e-07" style="stop-color:#7C1622"/>
	<stop  offset="1" style="stop-color:#282A5E"/>
</linearGradient>
<polygon class="st7" points="511.74,141.85 487.68,141.85 487.68,125.55 487.68,105.55 509.34,105.55 509.34,93.56 487.68,93.56 
	487.68,70.6 487.68,60.15 511.08,60.15 511.08,48.16 473.62,48.16 473.62,70.6 473.62,125.55 473.62,153.51 511.74,153.51 "/>
<linearGradient id="SVGID_9_" gradientUnits="userSpaceOnUse" x1="148.0509" y1="154.7527" x2="148.0509" y2="46.506">
	<stop  offset="1.821087e-07" style="stop-color:#7C1622"/>
	<stop  offset="1" style="stop-color:#282A5E"/>
</linearGradient>
<path class="st8" d="M142.1,143.26c-2.54,0-5.13-0.62-7.77-1.86s-4.38-2.16-5.21-2.77c-0.17-0.11-0.33-0.19-0.5-0.25v12.65
	c6.06,2.48,11.19,3.72,15.38,3.72c7.61,0,13.77-2.44,18.48-7.32c4.71-4.89,7.07-11.25,7.07-19.09c0-0.99-0.27-1.84-0.34-2.8
	c-0.38-5.11-1.56-9.82-4-13.91c-2.89-4.87-7.08-10.58-12.55-17.2c-5.46-6.6-8.98-11.41-10.54-14.42c-1.56-2.99-2.34-5.82-2.34-8.46
	c0-0.35,0.16-0.63,0.18-0.96c0.22-3.31,1.37-6.23,3.75-8.63c2.62-2.65,5.77-3.97,9.47-3.97c3.69,0,7.86,1.24,12.49,3.72V50.23
	c-5.07-2.48-10.09-3.72-15.05-3.72c-7.11,0-12.9,2.4-17.37,7.19c-4.1,4.41-6.22,10.08-6.56,16.9c-0.03,0.62-0.14,1.18-0.14,1.82
	c0,5.18,0.88,9.65,2.65,13.4c1.76,3.75,4.49,7.9,8.18,12.42l9.5,11.69c3.58,4.37,6.04,7.81,7.41,10.35
	c0.89,1.65,1.38,3.44,1.68,5.28c0.16,0.98,0.35,1.95,0.35,2.99c0,4.3-1.34,7.83-4.01,10.58
	C149.64,141.88,146.23,143.26,142.1,143.26z"/>
<linearGradient id="SVGID_10_" gradientUnits="userSpaceOnUse" x1="148.0509" y1="228.2611" x2="148.0509" y2="-20.8387">
	<stop  offset="1.821087e-07" style="stop-color:#7C1622"/>
	<stop  offset="1" style="stop-color:#282A5E"/>
</linearGradient>
<path class="st9" d="M142.1,143.26c-2.54,0-5.13-0.62-7.77-1.86s-4.38-2.16-5.21-2.77c-0.17-0.11-0.33-0.19-0.5-0.25v12.65
	c6.06,2.48,11.19,3.72,15.38,3.72c7.61,0,13.77-2.44,18.48-7.32c4.71-4.89,7.07-11.25,7.07-19.09c0-0.99-0.27-1.84-0.34-2.8
	c-0.38-5.11-1.56-9.82-4-13.91c-2.89-4.87-7.08-10.58-12.55-17.2c-5.46-6.6-8.98-11.41-10.54-14.42c-1.56-2.99-2.34-5.82-2.34-8.46
	c0-0.35,0.16-0.63,0.18-0.96c0.22-3.31,1.37-6.23,3.75-8.63c2.62-2.65,5.77-3.97,9.47-3.97c3.69,0,7.86,1.24,12.49,3.72V50.23
	c-5.07-2.48-10.09-3.72-15.05-3.72c-7.11,0-12.9,2.4-17.37,7.19c-4.1,4.41-6.22,10.08-6.56,16.9c-0.03,0.62-0.14,1.18-0.14,1.82
	c0,5.18,0.88,9.65,2.65,13.4c1.76,3.75,4.49,7.9,8.18,12.42l9.5,11.69c3.58,4.37,6.04,7.81,7.41,10.35
	c0.89,1.65,1.38,3.44,1.68,5.28c0.16,0.98,0.35,1.95,0.35,2.99c0,4.3-1.34,7.83-4.01,10.58
	C149.64,141.88,146.23,143.26,142.1,143.26z"/>
<linearGradient id="SVGID_11_" gradientUnits="userSpaceOnUse" x1="434.7929" y1="153.5123" x2="434.7929" y2="48.1599">
	<stop  offset="1.821087e-07" style="stop-color:#7C1622"/>
	<stop  offset="1" style="stop-color:#282A5E"/>
</linearGradient>
<path class="st10" d="M458.15,153.51l-10.01-27.96l-8.1-22.65c5.35-2.09,9.21-5.21,11.58-9.34c2.37-4.13,3.56-10.28,3.56-18.44
	c0-1.61-0.14-3.06-0.27-4.52c-1.31-14.9-9.19-22.44-23.8-22.44h-19.68V70.6v54.95v27.96h14.22v-27.96v-21.49h1.24l7.17,21.49
	l9.33,27.96H458.15z M425.66,94.39V70.6V59.16h0.83c5.4,0,9.22,1.35,11.45,4.05c1.39,1.68,2.19,4.31,2.71,7.39
	c0.32,1.88,0.63,3.77,0.63,6.17c0,6.62-1.23,11.18-3.68,13.69C435.15,92.97,431.17,94.28,425.66,94.39z"/>
<linearGradient id="SVGID_12_" gradientUnits="userSpaceOnUse" x1="434.7929" y1="228.2611" x2="434.7929" y2="-20.8387">
	<stop  offset="1.821087e-07" style="stop-color:#7C1622"/>
	<stop  offset="1" style="stop-color:#282A5E"/>
</linearGradient>
<path class="st11" d="M458.15,153.51l-10.01-27.96l-8.1-22.65c5.35-2.09,9.21-5.21,11.58-9.34c2.37-4.13,3.56-10.28,3.56-18.44
	c0-1.61-0.14-3.06-0.27-4.52c-1.31-14.9-9.19-22.44-23.8-22.44h-19.68V70.6v54.95v27.96h14.22v-27.96v-21.49h1.24l7.17,21.49
	l9.33,27.96H458.15z M425.66,94.39V70.6V59.16h0.83c5.4,0,9.22,1.35,11.45,4.05c1.39,1.68,2.19,4.31,2.71,7.39
	c0.32,1.88,0.63,3.77,0.63,6.17c0,6.62-1.23,11.18-3.68,13.69C435.15,92.97,431.17,94.28,425.66,94.39z"/>
<linearGradient id="SVGID_13_" gradientUnits="userSpaceOnUse" x1="145.8563" y1="-44.0819" x2="146.7571" y2="245.0873">
	<stop  offset="1.821087e-07" style="stop-color:#7C1622"/>
	<stop  offset="1" style="stop-color:#282A5E"/>
</linearGradient>
<path class="st12" d="M143.57,15.88c2.62-2.65,5.77-3.97,9.47-3.97c3.69,0,7.86,1.24,12.49,3.72V4.13
	c-5.07-2.48-10.09-3.72-15.05-3.72c-7.11,0-12.9,2.4-17.37,7.19c-4.1,4.41-6.22,10.08-6.56,16.9h13.27
	C140.04,21.2,141.19,18.28,143.57,15.88z"/>
<linearGradient id="SVGID_14_" gradientUnits="userSpaceOnUse" x1="146.0382" y1="228.2611" x2="146.0382" y2="-20.8387">
	<stop  offset="1.821087e-07" style="stop-color:#7C1622"/>
	<stop  offset="1" style="stop-color:#282A5E"/>
</linearGradient>
<path class="st13" d="M143.57,15.88c2.62-2.65,5.77-3.97,9.47-3.97c3.69,0,7.86,1.24,12.49,3.72V4.13
	c-5.07-2.48-10.09-3.72-15.05-3.72c-7.11,0-12.9,2.4-17.37,7.19c-4.1,4.41-6.22,10.08-6.56,16.9h13.27
	C140.04,21.2,141.19,18.28,143.57,15.88z"/>
<linearGradient id="SVGID_15_" gradientUnits="userSpaceOnUse" x1="214.0194" y1="-44.2942" x2="214.9203" y2="244.875">
	<stop  offset="1.821087e-07" style="stop-color:#7C1622"/>
	<stop  offset="1" style="stop-color:#282A5E"/>
</linearGradient>
<path class="st14" d="M202.99,19.63c2.05-5.64,5.84-8.46,11.36-8.46c4.7,0,8.22,2.36,10.57,7.07c0.69,1.37,1.24,3.6,1.73,6.27h14.71
	c-0.95-5.44-2.19-10-3.85-13.23C233.62,3.76,225.78,0,213.98,0c-10.31,0-17.71,3.36-22.2,10.07c-2.05,3.06-3.57,8.02-4.68,14.43
	h14.57C202.05,22.65,202.49,21.02,202.99,19.63z"/>
<linearGradient id="SVGID_16_" gradientUnits="userSpaceOnUse" x1="214.2338" y1="228.2611" x2="214.2338" y2="-20.8387">
	<stop  offset="1.821087e-07" style="stop-color:#7C1622"/>
	<stop  offset="1" style="stop-color:#282A5E"/>
</linearGradient>
<path class="st15" d="M202.99,19.63c2.05-5.64,5.84-8.46,11.36-8.46c4.7,0,8.22,2.36,10.57,7.07c0.69,1.37,1.24,3.6,1.73,6.27h14.71
	c-0.95-5.44-2.19-10-3.85-13.23C233.62,3.76,225.78,0,213.98,0c-10.31,0-17.71,3.36-22.2,10.07c-2.05,3.06-3.57,8.02-4.68,14.43
	h14.57C202.05,22.65,202.49,21.02,202.99,19.63z"/>
<linearGradient id="SVGID_17_" gradientUnits="userSpaceOnUse" x1="306.7942" y1="-44.5833" x2="307.695" y2="244.586">
	<stop  offset="1.821087e-07" style="stop-color:#7C1622"/>
	<stop  offset="1" style="stop-color:#282A5E"/>
</linearGradient>
<rect x="300.73" y="2.07" class="st16" width="12.49" height="22.44"/>
<linearGradient id="SVGID_18_" gradientUnits="userSpaceOnUse" x1="306.9744" y1="228.2611" x2="306.9744" y2="-20.8387">
	<stop  offset="1.821087e-07" style="stop-color:#7C1622"/>
	<stop  offset="1" style="stop-color:#282A5E"/>
</linearGradient>
<rect x="300.73" y="2.07" class="st17" width="12.49" height="22.44"/>
<linearGradient id="SVGID_19_" gradientUnits="userSpaceOnUse" x1="271.7459" y1="-44.4741" x2="272.6467" y2="244.6951">
	<stop  offset="1.821087e-07" style="stop-color:#7C1622"/>
	<stop  offset="1" style="stop-color:#282A5E"/>
</linearGradient>
<polygon class="st18" points="273.44,2.07 262.11,2.07 262.11,24.51 281.81,24.51 "/>
<linearGradient id="SVGID_20_" gradientUnits="userSpaceOnUse" x1="271.9608" y1="228.2611" x2="271.9608" y2="-20.8387">
	<stop  offset="1.821087e-07" style="stop-color:#7C1622"/>
	<stop  offset="1" style="stop-color:#282A5E"/>
</linearGradient>
<polygon class="st19" points="273.44,2.07 262.11,2.07 262.11,24.51 281.81,24.51 "/>
<linearGradient id="SVGID_21_" gradientUnits="userSpaceOnUse" x1="362.206" y1="-44.7559" x2="363.1068" y2="244.4133">
	<stop  offset="1.821087e-07" style="stop-color:#7C1622"/>
	<stop  offset="1" style="stop-color:#282A5E"/>
</linearGradient>
<path class="st20" d="M351.18,19.63c2.05-5.64,5.84-8.46,11.36-8.46c4.7,0,8.22,2.36,10.57,7.07c0.69,1.37,1.24,3.6,1.73,6.27h14.71
	c-0.95-5.44-2.19-10-3.85-13.23C381.81,3.76,373.97,0,362.17,0c-10.31,0-17.71,3.36-22.2,10.07c-2.05,3.06-3.57,8.02-4.68,14.43
	h14.57C350.24,22.65,350.68,21.02,351.18,19.63z"/>
<linearGradient id="SVGID_22_" gradientUnits="userSpaceOnUse" x1="362.4217" y1="228.2611" x2="362.4217" y2="-20.8387">
	<stop  offset="1.821087e-07" style="stop-color:#7C1622"/>
	<stop  offset="1" style="stop-color:#282A5E"/>
</linearGradient>
<path class="st21" d="M351.18,19.63c2.05-5.64,5.84-8.46,11.36-8.46c4.7,0,8.22,2.36,10.57,7.07c0.69,1.37,1.24,3.6,1.73,6.27h14.71
	c-0.95-5.44-2.19-10-3.85-13.23C381.81,3.76,373.97,0,362.17,0c-10.31,0-17.71,3.36-22.2,10.07c-2.05,3.06-3.57,8.02-4.68,14.43
	h14.57C350.24,22.65,350.68,21.02,351.18,19.63z"/>
<linearGradient id="SVGID_23_" gradientUnits="userSpaceOnUse" x1="432.8149" y1="-44.9759" x2="433.7158" y2="244.1934">
	<stop  offset="1.821087e-07" style="stop-color:#7C1622"/>
	<stop  offset="1" style="stop-color:#282A5E"/>
</linearGradient>
<path class="st22" d="M425.52,13.07h0.83c5.4,0,9.22,1.35,11.45,4.05c1.39,1.68,2.19,4.31,2.71,7.39h14.26
	c-1.31-14.9-9.19-22.44-23.8-22.44h-19.68v22.44h14.22V13.07z"/>
<linearGradient id="SVGID_24_" gradientUnits="userSpaceOnUse" x1="433.0314" y1="228.2611" x2="433.0314" y2="-20.8387">
	<stop  offset="1.821087e-07" style="stop-color:#7C1622"/>
	<stop  offset="1" style="stop-color:#282A5E"/>
</linearGradient>
<path class="st23" d="M425.52,13.07h0.83c5.4,0,9.22,1.35,11.45,4.05c1.39,1.68,2.19,4.31,2.71,7.39h14.26
	c-1.31-14.9-9.19-22.44-23.8-22.44h-19.68v22.44h14.22V13.07z"/>
<linearGradient id="SVGID_25_" gradientUnits="userSpaceOnUse" x1="492.0273" y1="-45.1603" x2="492.9282" y2="244.0089">
	<stop  offset="1.821087e-07" style="stop-color:#7C1622"/>
	<stop  offset="1" style="stop-color:#282A5E"/>
</linearGradient>
<polygon class="st24" points="487.54,14.06 510.94,14.06 510.94,2.07 473.48,2.07 473.48,24.51 487.54,24.51 "/>
<linearGradient id="SVGID_26_" gradientUnits="userSpaceOnUse" x1="492.2094" y1="228.2611" x2="492.2094" y2="-20.8387">
	<stop  offset="1.821087e-07" style="stop-color:#7C1622"/>
	<stop  offset="1" style="stop-color:#282A5E"/>
</linearGradient>
<polygon class="st25" points="487.54,14.06 510.94,14.06 510.94,2.07 473.48,2.07 473.48,24.51 487.54,24.51 "/>
<linearGradient id="SVGID_27_" gradientUnits="userSpaceOnUse" x1="148.6145" y1="-44.0905" x2="149.5154" y2="245.0787">
	<stop  offset="1.821087e-07" style="stop-color:#7C1622"/>
	<stop  offset="1" style="stop-color:#282A5E"/>
</linearGradient>
<path class="st26" d="M156.23,176.15c0.16,0.98,0.35,1.95,0.35,2.99c0,4.3-1.34,7.83-4.01,10.58c-2.67,2.76-6.08,4.13-10.21,4.13
	c-2.54,0-5.13-0.62-7.77-1.86s-4.38-2.16-5.21-2.77c-0.17-0.11-0.33-0.19-0.5-0.25v12.65c6.06,2.48,11.19,3.72,15.38,3.72
	c7.61,0,13.77-2.44,18.48-7.32c4.71-4.89,7.07-11.25,7.07-19.09c0-0.99-0.27-1.84-0.34-2.8H156.23z"/>
<linearGradient id="SVGID_28_" gradientUnits="userSpaceOnUse" x1="149.3447" y1="228.2611" x2="149.3447" y2="-20.8387">
	<stop  offset="1.821087e-07" style="stop-color:#7C1622"/>
	<stop  offset="1" style="stop-color:#282A5E"/>
</linearGradient>
<path class="st27" d="M156.23,176.15c0.16,0.98,0.35,1.95,0.35,2.99c0,4.3-1.34,7.83-4.01,10.58c-2.67,2.76-6.08,4.13-10.21,4.13
	c-2.54,0-5.13-0.62-7.77-1.86s-4.38-2.16-5.21-2.77c-0.17-0.11-0.33-0.19-0.5-0.25v12.65c6.06,2.48,11.19,3.72,15.38,3.72
	c7.61,0,13.77-2.44,18.48-7.32c4.71-4.89,7.07-11.25,7.07-19.09c0-0.99-0.27-1.84-0.34-2.8H156.23z"/>
<linearGradient id="SVGID_29_" gradientUnits="userSpaceOnUse" x1="213.9028" y1="-44.2939" x2="214.8036" y2="244.8754">
	<stop  offset="1.821087e-07" style="stop-color:#7C1622"/>
	<stop  offset="1" style="stop-color:#282A5E"/>
</linearGradient>
<path class="st28" d="M224.71,187.82c-2.76,3.86-6.08,5.79-9.95,5.79c-6.31,0-10.28-3.43-11.94-10.28
	c-0.49-2.01-0.88-4.48-1.22-7.18h-14.97c0.46,3.92,1.01,7.37,1.75,9.87c1.96,6.62,4.95,11.38,8.97,14.33
	c4.02,2.95,9.81,4.42,17.37,4.42c7.33,0,13.13-1.6,17.41-4.8c4.27-3.18,7.28-8.17,9.01-14.95c0.58-2.27,1.03-5.38,1.42-8.87h-14.67
	C227.19,181.86,226.15,185.81,224.71,187.82z"/>
<linearGradient id="SVGID_30_" gradientUnits="userSpaceOnUse" x1="214.5895" y1="228.2611" x2="214.5895" y2="-20.8387">
	<stop  offset="1.821087e-07" style="stop-color:#7C1622"/>
	<stop  offset="1" style="stop-color:#282A5E"/>
</linearGradient>
<path class="st29" d="M224.71,187.82c-2.76,3.86-6.08,5.79-9.95,5.79c-6.31,0-10.28-3.43-11.94-10.28
	c-0.49-2.01-0.88-4.48-1.22-7.18h-14.97c0.46,3.92,1.01,7.37,1.75,9.87c1.96,6.62,4.95,11.38,8.97,14.33
	c4.02,2.95,9.81,4.42,17.37,4.42c7.33,0,13.13-1.6,17.41-4.8c4.27-3.18,7.28-8.17,9.01-14.95c0.58-2.27,1.03-5.38,1.42-8.87h-14.67
	C227.19,181.86,226.15,185.81,224.71,187.82z"/>
<linearGradient id="SVGID_31_" gradientUnits="userSpaceOnUse" x1="268.1483" y1="-44.4629" x2="269.0491" y2="244.7064">
	<stop  offset="1.821087e-07" style="stop-color:#7C1622"/>
	<stop  offset="1" style="stop-color:#282A5E"/>
</linearGradient>
<rect x="262.51" y="176.15" class="st30" width="12.73" height="27.96"/>
<linearGradient id="SVGID_32_" gradientUnits="userSpaceOnUse" x1="268.8791" y1="228.2611" x2="268.8791" y2="-20.8387">
	<stop  offset="1.821087e-07" style="stop-color:#7C1622"/>
	<stop  offset="1" style="stop-color:#282A5E"/>
</linearGradient>
<rect x="262.51" y="176.15" class="st31" width="12.73" height="27.96"/>
<linearGradient id="SVGID_33_" gradientUnits="userSpaceOnUse" x1="302.1504" y1="-44.5688" x2="303.0512" y2="244.6004">
	<stop  offset="1.821087e-07" style="stop-color:#7C1622"/>
	<stop  offset="1" style="stop-color:#282A5E"/>
</linearGradient>
<polygon class="st32" points="302.45,204.11 313.62,204.11 313.62,176.15 292.06,176.15 "/>
<linearGradient id="SVGID_34_" gradientUnits="userSpaceOnUse" x1="302.838" y1="228.2611" x2="302.838" y2="-20.8387">
	<stop  offset="1.821087e-07" style="stop-color:#7C1622"/>
	<stop  offset="1" style="stop-color:#282A5E"/>
</linearGradient>
<polygon class="st33" points="302.45,204.11 313.62,204.11 313.62,176.15 292.06,176.15 "/>
<linearGradient id="SVGID_35_" gradientUnits="userSpaceOnUse" x1="362.0893" y1="-44.7555" x2="362.9902" y2="244.4137">
	<stop  offset="1.821087e-07" style="stop-color:#7C1622"/>
	<stop  offset="1" style="stop-color:#282A5E"/>
</linearGradient>
<path class="st34" d="M372.89,187.82c-2.76,3.86-6.08,5.79-9.95,5.79c-6.31,0-10.28-3.43-11.94-10.28
	c-0.49-2.01-0.88-4.48-1.22-7.18h-14.97c0.46,3.92,1.01,7.37,1.75,9.87c1.96,6.62,4.95,11.38,8.97,14.33
	c4.02,2.95,9.81,4.42,17.37,4.42c7.33,0,13.13-1.6,17.41-4.8c4.27-3.18,7.28-8.17,9.01-14.95c0.58-2.27,1.03-5.38,1.42-8.87h-14.67
	C375.38,181.86,374.34,185.81,372.89,187.82z"/>
<linearGradient id="SVGID_36_" gradientUnits="userSpaceOnUse" x1="362.7775" y1="228.2611" x2="362.7775" y2="-20.8387">
	<stop  offset="1.821087e-07" style="stop-color:#7C1622"/>
	<stop  offset="1" style="stop-color:#282A5E"/>
</linearGradient>
<path class="st35" d="M372.89,187.82c-2.76,3.86-6.08,5.79-9.95,5.79c-6.31,0-10.28-3.43-11.94-10.28
	c-0.49-2.01-0.88-4.48-1.22-7.18h-14.97c0.46,3.92,1.01,7.37,1.75,9.87c1.96,6.62,4.95,11.38,8.97,14.33
	c4.02,2.95,9.81,4.42,17.37,4.42c7.33,0,13.13-1.6,17.41-4.8c4.27-3.18,7.28-8.17,9.01-14.95c0.58-2.27,1.03-5.38,1.42-8.87h-14.67
	C375.38,181.86,374.34,185.81,372.89,187.82z"/>
<linearGradient id="SVGID_37_" gradientUnits="userSpaceOnUse" x1="418.0714" y1="-44.9299" x2="418.9722" y2="244.2393">
	<stop  offset="1.821087e-07" style="stop-color:#7C1622"/>
	<stop  offset="1" style="stop-color:#282A5E"/>
</linearGradient>
<rect x="411.69" y="176.15" class="st36" width="14.22" height="27.96"/>
<linearGradient id="SVGID_38_" gradientUnits="userSpaceOnUse" x1="418.8036" y1="228.2611" x2="418.8036" y2="-20.8387">
	<stop  offset="1.821087e-07" style="stop-color:#7C1622"/>
	<stop  offset="1" style="stop-color:#282A5E"/>
</linearGradient>
<rect x="411.69" y="176.15" class="st37" width="14.22" height="27.96"/>
<linearGradient id="SVGID_39_" gradientUnits="userSpaceOnUse" x1="445.6384" y1="-45.0158" x2="446.5393" y2="244.1534">
	<stop  offset="1.821087e-07" style="stop-color:#7C1622"/>
	<stop  offset="1" style="stop-color:#282A5E"/>
</linearGradient>
<polygon class="st38" points="434.33,176.15 443.66,204.11 458.41,204.11 448.41,176.15 "/>
<linearGradient id="SVGID_40_" gradientUnits="userSpaceOnUse" x1="446.371" y1="228.2611" x2="446.371" y2="-20.8387">
	<stop  offset="1.821087e-07" style="stop-color:#7C1622"/>
	<stop  offset="1" style="stop-color:#282A5E"/>
</linearGradient>
<polygon class="st39" points="434.33,176.15 443.66,204.11 458.41,204.11 448.41,176.15 "/>
<linearGradient id="SVGID_41_" gradientUnits="userSpaceOnUse" x1="492.1806" y1="-45.1608" x2="493.0815" y2="244.0084">
	<stop  offset="1.821087e-07" style="stop-color:#7C1622"/>
	<stop  offset="1" style="stop-color:#282A5E"/>
</linearGradient>
<polygon class="st40" points="487.94,176.15 473.88,176.15 473.88,204.11 512,204.11 512,192.45 487.94,192.45 "/>
<linearGradient id="SVGID_42_" gradientUnits="userSpaceOnUse" x1="492.939" y1="228.2611" x2="492.939" y2="-20.8387">
	<stop  offset="1.821087e-07" style="stop-color:#7C1622"/>
	<stop  offset="1" style="stop-color:#282A5E"/>
</linearGradient>
<polygon class="st41" points="487.94,176.15 473.88,176.15 473.88,204.11 512,204.11 512,192.45 487.94,192.45 "/>
<linearGradient id="SVGID_43_" gradientUnits="userSpaceOnUse" x1="46.4398" y1="157.995" x2="47.3407" y2="34.5801">
	<stop  offset="1.821087e-07" style="stop-color:#7C1622"/>
	<stop  offset="0.1716" style="stop-color:#6F1D33"/>
	<stop  offset="0.365" style="stop-color:#5B2342"/>
	<stop  offset="0.5504" style="stop-color:#49274E"/>
	<stop  offset="0.7231" style="stop-color:#392957"/>
	<stop  offset="0.8779" style="stop-color:#2D2A5C"/>
	<stop  offset="1" style="stop-color:#282A5E"/>
</linearGradient>
<rect class="st42" width="93.69" height="205.35"/>
</svg>
